<svg class="{{ with .class }}{{ . }} {{ end }}icon icon-series" viewBox="0 0 16 16" x="0px" y="0px" width="24" height="24" transform="scale(0.9)">
    <rect x="5" y="3" width="9" height="2" rx="0.5" ry="0.5"/>
    <rect x="5" y="7" width="9" height="2" rx="0.5" ry="0.5"/>
    <rect x="5" y="11" width="9" height="2" rx="0.5" ry="0.5"/>
    <path d="M2.43844,1.99608H3.64156V4.99216H3.00387V2.58688H2.43844V1.99608Z"/>
    <path d="M3.15234,7.1875a0.53606,0.53606,0,0,0,.1123-0.30811A0.33978,0.33978,0,0,0,3.167,6.63086a0.33473,0.33473,0,0,0-.251-0.1001,0.68292,0.68292,0,0,0-.53125.39941L1.85352,6.61572a1.6386,1.6386,0,0,1,.457-0.48877,1.12077,1.12077,0,0,1,.63281-0.16553,1.019,1.019,0,0,1,.67578.24414,0.82292,0.82292,0,0,1,.292.665,0.89053,0.89053,0,0,1-.11719.43994,2.87918,2.87918,0,0,1-.43164.5376l-0.53516.55664H4V9H1.9043V8.50684l0.87207-.89258A3.90321,3.90321,0,0,0,3.15234,7.1875Z"/>
    <path d="M2.04,10.56055V9.99512H3.85938v0.459L3.252,11.14746A0.84687,0.84687,0,0,1,4,12.001a0.90244,0.90244,0,0,1-.31738.7334A1.21725,1.21725,0,0,1,2.873,13a1.75524,1.75524,0,0,1-.998-0.34863L2.14648,12.124a1.34788,1.34788,0,0,0,.75293.29785,0.531,0.531,0,0,0,.3291-0.09766A0.33367,0.33367,0,0,0,3.3584,12.042,0.34392,0.34392,0,0,0,3.209,11.748a0.68668,0.68668,0,0,0-.41211-0.1084,1.42638,1.42638,0,0,0-.39551.08105V11.23145l0.56934-.6709H2.04Z"/>
    <text x="0" y="31" font-size="5px" font-weight="bold" font-family="'Helvetica Neue', Helvetica, Arial-Unicode, Arial, Sans-serif">Created by Wireform</text>
    <text x="0" y="36" font-size="5px" font-weight="bold" font-family="'Helvetica Neue', Helvetica, Arial-Unicode, Arial, Sans-serif">from the Noun Project</text>
</svg>